<svg width="32" height="32" viewBox="0 0 32 33" fill="none" xmlns="http://www.w3.org/2000/svg">
<mask id="mask0_710_1109" style="mask-type:alpha" maskUnits="userSpaceOnUse" x="0" y="0" width="32" height="33">
<rect y="0.682007" width="32" height="32" fill="#C4C4C4"/>
</mask>
<g mask="url(#mask0_710_1109)">
</g>
<g clip-path="url(#clip0_710_1109)">
<path d="M9.31891 19.1855L8.4835 22.3042L5.43011 22.3688C4.51759 20.6763 4 18.7398 4 16.682C4 14.6921 4.48394 12.8156 5.34175 11.1633H5.34241L8.06078 11.6617L9.25159 14.3638C9.00236 15.0904 8.86652 15.8704 8.86652 16.682C8.86661 17.5629 9.02617 18.4069 9.31891 19.1855Z" fill="#FBBB00"/>
<path d="M27.7904 14.4402C27.9282 15.1662 28.0001 15.9158 28.0001 16.682C28.0001 17.5411 27.9098 18.3792 27.7377 19.1875C27.1535 21.9383 25.6272 24.3402 23.5127 26.04L23.512 26.0394L20.0881 25.8647L19.6035 22.8396C21.0065 22.0167 22.103 20.729 22.6806 19.1875H16.2639V14.4402H22.7742H27.7904Z" fill="#518EF8"/>
<path d="M23.5119 26.0394L23.5126 26.04C21.4561 27.693 18.8438 28.682 16.0001 28.682C11.4302 28.682 7.457 26.1277 5.43018 22.3688L9.31897 19.1855C10.3324 21.8901 12.9414 23.8154 16.0001 23.8154C17.3148 23.8154 18.5465 23.46 19.6033 22.8396L23.5119 26.0394Z" fill="#28B446"/>
<path d="M23.6596 7.44463L19.7721 10.6273C18.6783 9.94354 17.3853 9.54857 16.0001 9.54857C12.8721 9.54857 10.2143 11.5622 9.25169 14.3638L5.34245 11.1633H5.3418C7.33895 7.31277 11.3622 4.68201 16.0001 4.68201C18.9117 4.68201 21.5814 5.71916 23.6596 7.44463Z" fill="#F14336"/>
</g>
<defs>
<clipPath id="clip0_710_1109">
<rect width="24" height="24" fill="white" transform="translate(4 4.68201)"/>
</clipPath>
</defs>
</svg>
