<svg width="25" height="24" viewBox="0 0 25 24" fill="none" xmlns="http://www.w3.org/2000/svg">
<mask id="mask0_1_184" style="mask-type:alpha" maskUnits="userSpaceOnUse" x="0" y="0" width="25" height="24">
<rect x="0.5" width="24" height="24" fill="#000"/>
</mask>
<g mask="url(#mask0_1_184)">
</g>
<path d="M20.138 12.4713C20.2629 12.3463 20.3331 12.1768 20.3331 12C20.3331 11.8232 20.2629 11.6537 20.138 11.5287L16.8046 8.19533C16.6789 8.07389 16.5105 8.0067 16.3357 8.00822C16.1609 8.00974 15.9937 8.07985 15.8701 8.20345C15.7465 8.32706 15.6764 8.49427 15.6748 8.66907C15.6733 8.84386 15.7405 9.01227 15.862 9.138L18.0573 11.3333H6.33329C6.15648 11.3333 5.98691 11.4036 5.86189 11.5286C5.73686 11.6536 5.66663 11.8232 5.66663 12C5.66663 12.1768 5.73686 12.3464 5.86189 12.4714C5.98691 12.5964 6.15648 12.6667 6.33329 12.6667H18.0573L15.862 14.862C15.7405 14.9877 15.6733 15.1561 15.6748 15.3309C15.6764 15.5057 15.7465 15.6729 15.8701 15.7965C15.9937 15.9202 16.1609 15.9903 16.3357 15.9918C16.5105 15.9933 16.6789 15.9261 16.8046 15.8047L20.138 12.4713Z" fill="#000"/>
</svg>
